<svg xmlns="http://www.w3.org/2000/svg" viewBox="0 0 1024 1024" role="img" aria-labelledby="title desc">
  <title id="title">TMark app icon</title>
  <desc id="desc">A rounded square TMark monogram for the TMark desktop app.</desc>
  <defs>
    <linearGradient id="bg" x1="160" y1="96" x2="864" y2="928" gradientUnits="userSpaceOnUse">
      <stop offset="0" stop-color="#172033"/>
      <stop offset="0.52" stop-color="#16415a"/>
      <stop offset="1" stop-color="#216047"/>
    </linearGradient>
    <linearGradient id="accent" x1="260" y1="190" x2="794" y2="770" gradientUnits="userSpaceOnUse">
      <stop offset="0" stop-color="#65e4d8"/>
      <stop offset="1" stop-color="#f4c95d"/>
    </linearGradient>
    <filter id="shadow" x="-20%" y="-20%" width="140%" height="140%">
      <feDropShadow dx="0" dy="24" stdDeviation="28" flood-color="#06111c" flood-opacity="0.3"/>
    </filter>
  </defs>

  <rect width="1024" height="1024" rx="220" fill="url(#bg)"/>
  <path d="M171 688C302 570 414 563 548 654C668 735 760 731 858 646" fill="none" stroke="#ffffff" stroke-width="18" stroke-linecap="round" opacity="0.08"/>
  <path d="M196 268C341 314 473 316 644 270C724 249 792 252 856 279" fill="none" stroke="#ffffff" stroke-width="16" stroke-linecap="round" opacity="0.08"/>

  <g filter="url(#shadow)">
    <path d="M266 252h492c24 0 44 20 44 44v84c0 24-20 44-44 44H592v350c0 24-20 44-44 44h-88c-24 0-44-20-44-44V424H266c-24 0-44-20-44-44v-84c0-24 20-44 44-44z" fill="#f7fbff"/>
    <path d="M590 536l112 77l-112 77v-74l55-36l-55-36v-4z" fill="url(#accent)"/>
    <path d="M344 536l-112 77l112 77v-74l-55-36l55-36v-4z" fill="url(#accent)"/>
    <path d="M435 708l82-256h74l-82 256h-74z" fill="#102033" opacity="0.9"/>
  </g>

  <circle cx="760" cy="246" r="34" fill="#f4c95d" opacity="0.95"/>
  <circle cx="808" cy="306" r="15" fill="#65e4d8" opacity="0.95"/>
</svg>
